<?xml version="1.0" standalone="no"?>
<svg xmlns="http://www.w3.org/2000/svg" viewBox="0 0 99.552 36" width="99.552" height="36"><g fill="#ff7c7c" color="#ff7c7c" transform="translate(0 3.9999999999999982) scale(0.2800001)"><svg width="100.0" height="100.0" x="0.0" y="0.0" viewBox="0 0 100 100"><g><path fill-rule="evenodd" clip-rule="evenodd" d="M47.102,0c1.928,0,3.856,0,5.784,0c8.338,0.642,15.042,2.917,20.99,5.95   c-9.545,9.958-19.296,19.708-29.253,29.252c-2.969-3.846-6.214-6.932-13.221-6.279c-6.848,0.638-12.008,6.789-12.065,13.552   c-0.093,11.1,12.636,17.426,21.981,11.239c2.455-1.625,4.708-4.378,6.941-6.611c6.658-6.659,13.369-13.473,19.997-20.164   c5.471,4.927,10.706,10.542,16.196,16.032c0.574,0.574,2.305,1.916,2.314,2.148c0.021,0.503-3.571,3.738-3.967,4.132   c-4.035,4.035-8.129,8.161-12.23,11.9c-2.845-5.982-12.565-8.104-18.84-4.297c-3.834,2.326-6.286,6.06-6.446,11.238   c-0.221,7.125,4.855,13.32,11.9,14.047c9.767,1.009,13.735-5.969,18.51-10.742c8.042-8.042,16.394-16.425,24.295-23.963   c0.308,16.392-5.383,28.214-13.388,36.524c-8.017,8.322-18.679,14.98-33.715,16.03c-1.928,0-3.855,0-5.784,0   c-14.023-1.231-24.828-6.812-32.558-14.543C6.814,77.715,1.225,66.916,0,52.887c0-1.929,0-3.857,0-5.785   C0.812,33.583,7.182,22,14.709,14.544C22.682,6.645,33.328,1.089,47.102,0z"></path></g></svg></g><path fill="#6183ff" fill-rule="nonzero" d="M0 14.23L0 14.23L0.77 13.15Q2.52 14.16 4.49 14.16L4.49 14.16Q6 14.16 6.86 13.45Q7.73 12.74 7.73 11.45L7.73 11.45Q7.73 9.24 4.82 8.23L4.82 8.23Q2.35 7.39 1.25 6.36Q0.14 5.33 0.14 3.84L0.14 3.84Q0.14 2.06 1.54 0.98L1.54 0.98Q2.81 0 4.87 0L4.87 0Q7.13 0 8.98 1.25L8.98 1.25L8.18 2.33Q6.70 1.54 4.99 1.54L4.99 1.54Q3.60 1.54 2.78 2.14Q1.97 2.74 1.97 3.77L1.97 3.77Q1.97 5.38 4.46 6.31L4.46 6.31Q7.30 7.39 8.44 8.53Q9.58 9.67 9.58 11.50L9.58 11.50Q9.58 13.58 7.97 14.78L7.97 14.78Q6.65 15.77 4.75 15.77L4.75 15.77Q2.38 15.77 0 14.23ZM22.56 10.06L22.56 10.06Q22.56 12.65 20.93 14.30L20.93 14.30Q19.46 15.77 17.33 15.77L17.33 15.77Q14.86 15.77 13.34 13.90L13.34 13.90Q12.07 12.31 12.07 10.06L12.07 10.06Q12.07 7.42 13.66 5.78L13.66 5.78Q15.10 4.30 17.33 4.30L17.33 4.30Q19.85 4.30 21.34 6.19L21.34 6.19Q22.56 7.78 22.56 10.06ZM13.80 10.06L13.80 10.06Q13.80 12.14 14.88 13.37L14.88 13.37Q15.84 14.45 17.30 14.45L17.30 14.45Q18.89 14.45 19.86 13.24Q20.83 12.02 20.83 10.06L20.83 10.06Q20.83 7.99 19.78 6.74L19.78 6.74Q18.82 5.59 17.33 5.59L17.33 5.59Q15.74 5.59 14.77 6.83Q13.80 8.06 13.80 10.06ZM34.75 8.98L34.75 15.48L33.17 15.48L33.17 9.10Q33.17 5.69 30.19 5.69L30.19 5.69Q29.33 5.69 28.49 6.10Q27.65 6.50 27.19 7.13L27.19 7.13L27.19 15.48L25.58 15.48L25.58 4.58L26.93 4.58L27.07 5.74L27.14 5.74Q28.56 4.30 30.70 4.30L30.70 4.30Q34.75 4.30 34.75 8.98L34.75 8.98ZM46.06 5.69L46.06 5.69L46.30 4.58L47.54 4.58L47.54 14.59Q47.54 20.06 42.77 20.06L42.77 20.06Q40.51 20.06 38.78 18.55L38.78 18.55L39.34 17.66Q40.82 18.70 42.50 18.70L42.50 18.70Q44.28 18.70 45.12 17.71Q45.96 16.73 45.96 14.59L45.96 14.59L45.96 14.38Q44.78 15.77 42.74 15.77L42.74 15.77Q40.37 15.77 38.98 13.99L38.98 13.99Q37.78 12.46 37.78 10.18L37.78 10.18Q37.78 7.30 39.46 5.66L39.46 5.66Q40.85 4.30 42.89 4.30L42.89 4.30Q43.80 4.30 44.70 4.69Q45.60 5.09 46.06 5.69ZM45.96 12.58L45.96 12.58L45.96 7.37Q45.65 6.62 44.83 6.11Q44.02 5.59 43.10 5.59L43.10 5.59Q41.52 5.59 40.51 6.83Q39.50 8.06 39.50 10.01L39.50 10.01Q39.50 12.22 40.61 13.44L40.61 13.44Q41.57 14.45 43.01 14.45L43.01 14.45Q43.97 14.45 44.77 13.93Q45.58 13.42 45.96 12.58ZM57.53 5.33L57 6.22Q55.80 5.59 54.38 5.59L54.38 5.59Q53.42 5.59 52.88 6.01Q52.34 6.43 52.34 7.15L52.34 7.15Q52.34 7.92 52.84 8.34Q53.33 8.76 54.72 9.17L54.72 9.17Q56.69 9.77 57.46 10.51Q58.22 11.26 58.22 12.60L58.22 12.60Q58.22 14.02 57.16 14.89Q56.09 15.77 54.41 15.77L54.41 15.77Q52.20 15.77 50.57 14.57L50.57 14.57Q50.64 14.45 50.81 14.16L50.81 14.16Q50.98 13.85 51.10 13.68L51.10 13.68Q52.49 14.45 54.10 14.45L54.10 14.45Q56.62 14.45 56.62 12.55L56.62 12.55Q56.62 11.78 56.08 11.35Q55.54 10.92 54.07 10.54L54.07 10.54Q50.66 9.58 50.66 7.20L50.66 7.20Q50.66 5.93 51.66 5.11Q52.66 4.30 54.22 4.30L54.22 4.30Q56.06 4.30 57.53 5.33L57.53 5.33ZM63.55 14.52L63.55 14.52Q63.55 14.54 63.55 14.57L63.55 14.57Q63.55 15.60 62.57 15.60L62.57 15.60Q61.54 15.60 61.54 14.54L61.54 14.54Q61.58 13.56 62.57 13.56L62.57 13.56Q63.55 13.56 63.55 14.52Z" transform="translate(36, 10.26)"></path></svg>